<?xml version="1.0" encoding="UTF-8" standalone="no"?>
<!-- Created with Inkscape (http://www.inkscape.org/) -->

<svg
   xmlns:dc="http://purl.org/dc/elements/1.1/"
   xmlns:cc="http://creativecommons.org/ns#"
   xmlns:rdf="http://www.w3.org/1999/02/22-rdf-syntax-ns#"
   xmlns:svg="http://www.w3.org/2000/svg"
   xmlns="http://www.w3.org/2000/svg"
   xmlns:xlink="http://www.w3.org/1999/xlink"
   xmlns:sodipodi="http://sodipodi.sourceforge.net/DTD/sodipodi-0.dtd"
   xmlns:inkscape="http://www.inkscape.org/namespaces/inkscape"
   width="180.0356mm"
   height="28.050873mm"
   viewBox="0 0 180.0356 28.050873"
   version="1.1"
   id="svg27207"
   sodipodi:docname="mountains.svg"
   inkscape:version="0.92.3 (2405546, 2018-03-11)">
  <defs
     id="defs27201">
    <linearGradient
       id="linearGradient28277"
       inkscape:collect="always">
      <stop
         id="stop28273"
         offset="0"
         style="stop-color:#b3b3b3;stop-opacity:1" />
      <stop
         id="stop28275"
         offset="1"
         style="stop-color:#ececec;stop-opacity:1" />
    </linearGradient>
    <linearGradient
       inkscape:collect="always"
       id="linearGradient28237">
      <stop
         style="stop-color:#808080;stop-opacity:1"
         offset="0"
         id="stop28233" />
      <stop
         id="stop903"
         offset="0.45415509"
         style="stop-color:#bebebe;stop-opacity:1;" />
      <stop
         style="stop-color:#ffffff;stop-opacity:0"
         offset="1"
         id="stop28235" />
    </linearGradient>
    <linearGradient
       inkscape:collect="always"
       xlink:href="#linearGradient28277"
       id="linearGradient28239"
       x1="22.272217"
       y1="71.733681"
       x2="22.336126"
       y2="87.312294"
       gradientUnits="userSpaceOnUse"
       gradientTransform="matrix(0.98086082,0,0,1.0805607,0.05077248,-4.2172569)" />
    <linearGradient
       inkscape:collect="always"
       xlink:href="#linearGradient28237"
       id="linearGradient28239-5"
       x1="22.272217"
       y1="71.733681"
       x2="22.386431"
       y2="96.734032"
       gradientUnits="userSpaceOnUse"
       gradientTransform="matrix(-1.0001109,0,0,0.9125161,224.9181,11.892353)" />
  </defs>
  <sodipodi:namedview
     id="base"
     pagecolor="#ffffff"
     bordercolor="#666666"
     borderopacity="1.0"
     inkscape:pageopacity="0.0"
     inkscape:pageshadow="2"
     inkscape:zoom="1.4673164"
     inkscape:cx="320.70595"
     inkscape:cy="4.5682724"
     inkscape:document-units="mm"
     inkscape:current-layer="layer1"
     showgrid="false"
     inkscape:window-width="1920"
     inkscape:window-height="1056"
     inkscape:window-x="0"
     inkscape:window-y="0"
     inkscape:window-maximized="0"
     inkscape:snap-global="false" />
  <metadata
     id="metadata27204">
    <rdf:RDF>
      <cc:Work
         rdf:about="">
        <dc:format>image/svg+xml</dc:format>
        <dc:type
           rdf:resource="http://purl.org/dc/dcmitype/StillImage" />
      </cc:Work>
    </rdf:RDF>
  </metadata>
  <g
     inkscape:label="Layer 1"
     inkscape:groupmode="layer"
     id="layer1"
     transform="translate(-22.18569,-71.31797)">
    <path
       style="opacity:1;fill:url(#linearGradient28239);fill-opacity:1;stroke:#aabbcc;stroke-width:0.22061817px;stroke-linecap:butt;stroke-linejoin:miter;stroke-opacity:0"
       d="m 21.391904,90.330606 -0.06735,-2.335247 3.565905,-1.530562 3.274834,-4.58005 2.254655,-1.433132 4.236916,2.193119 3.064486,-1.858658 1.725441,1.117339 5.498456,-0.230066 3.38953,-3.971584 1.952545,-1.542342 2.992433,2.093448 2.242072,1.327304 3.592208,3.495197 3.158176,-1.534725 3.856404,0.08997 1.54249,-3.177433 1.634686,-1.180696 5.309729,6.236789 3.840533,2.123702 1.280084,-1.346077 3.737094,-2.184228 2.584551,1.873934 c 2.067441,0.427612 2.964111,0.07226 3.951719,0.229307 0.849754,0.135127 1.7785,0.74758 3.442814,1.427064 l 5.670826,-7.415852 2.458729,-2.015152 2.84044,3.837344 3.5485,3.692185 4.0362,-0.05524 5.93947,-5.275878 5.80083,-1.550053 4.78102,-2.779737 6.15182,5.166847 4.38207,1.438926 1.41227,2.110481 4.30148,-1.221938 3.45256,2.347249 6.01442,1.573365 7.58181,-3.244638 2.4995,1.167039 2.88362,-1.07716 2.71661,-3.79078 2.73329,-2.980894 3.32029,1.385335 2.9328,4.203848 6.83308,0.528739 2.00692,1.287718 3.55843,-1.600943 4.86002,4.056277 6.34627,1.910404 0.1166,2.499016 z"
       id="path27209"
       inkscape:connector-curvature="0"
       sodipodi:nodetypes="cccccccccccccccccccccccsccccccccccccccccccccccccccccc" />
    <rect
       style="fill:none;stroke:none;stroke-width:0.26458332"
       id="rect28063"
       width="180.0356"
       height="28.050873"
       x="22.18569"
       y="71.31797" />
    <rect
       style="fill:#000000;fill-opacity:0;stroke:none;stroke-width:0.26458332;stroke-opacity:1"
       id="rect28087"
       width="180.54562"
       height="6.3751984"
       x="22.18569"
       y="93.24865" />
    <path
       style="opacity:1;fill:url(#linearGradient28239-5);fill-opacity:1;stroke:#aabbcc;stroke-width:0.20471862px;stroke-linecap:butt;stroke-linejoin:miter;stroke-opacity:0"
       d="m 202.46301,99.839157 0.007,-9.254276 -2.8836,-1.666843 -3.33476,-4.313943 -2.2989,-1.210257 -2.91724,1.529573 -1.97687,0.257784 -3.54471,-3.463656 -4.72643,-2.473291 -1.86333,-1.839949 -3.81634,2.627828 -6.74959,2.625795 -3.66272,2.951637 -3.22015,-1.29605 -3.93209,0.07598 -1.57277,-2.68329 -1.66675,-0.997079 -5.41395,5.266866 -3.91591,1.793432 -1.30521,-1.136741 -3.81043,-1.844543 -2.63528,1.582505 c -2.10801,0.361112 -3.02228,0.06102 -4.02927,0.193646 -0.86644,0.114113 -1.8134,0.631321 -3.51038,1.205133 l -4.3793,-2.28531 -3.65473,-4.174112 -5.70182,2.918094 -3.10802,-0.536787 -2.07497,2.425704 -6.05603,-4.455392 -5.914687,-1.308995 -4.874846,-2.347443 -6.272561,4.363318 -4.46808,1.215151 -1.439985,1.782265 -9.614587,1.762923 -6.453487,1.767227 -4.170848,-2.27131 -2.803601,1.200532 -4.215527,-2.844526 -5.065442,-2.126317 -4.954933,-2.087342 -1.855093,-1.409952 -4.39318,2.045174 -2.631207,3.026355 -2.046295,1.087456 -3.628266,-1.351971 -4.405762,3.980804 -3.406051,3.115881 -0.05322,8.710831 z"
       id="path27209-6"
       inkscape:connector-curvature="0"
       sodipodi:nodetypes="ccccccccccccccccccccccscccccccccccccccccccccccccccc" />
  </g>
</svg>
