<?xml version="1.0" encoding="UTF-8" standalone="no"?>
<!-- Created with Inkscape (http://www.inkscape.org/) -->

<svg
   xmlns:dc="http://purl.org/dc/elements/1.1/"
   xmlns:cc="http://creativecommons.org/ns#"
   xmlns:rdf="http://www.w3.org/1999/02/22-rdf-syntax-ns#"
   xmlns:svg="http://www.w3.org/2000/svg"
   xmlns="http://www.w3.org/2000/svg"
   xmlns:xlink="http://www.w3.org/1999/xlink"
   xmlns:sodipodi="http://sodipodi.sourceforge.net/DTD/sodipodi-0.dtd"
   xmlns:inkscape="http://www.inkscape.org/namespaces/inkscape"
   width="180.0356mm"
   height="28.050873mm"
   viewBox="0 0 180.0356 28.050873"
   version="1.1"
   id="svg27207"
   sodipodi:docname="mountains.svg"
   inkscape:version="0.92.3 (2405546, 2018-03-11)">
  <defs
     id="defs27201">
    <linearGradient
       id="linearGradient28277"
       inkscape:collect="always">
      <stop
         id="stop28273"
         offset="0"
         style="stop-color:#b3b3b3;stop-opacity:1" />
      <stop
         id="stop28275"
         offset="1"
         style="stop-color:#ececec;stop-opacity:1" />
    </linearGradient>
    <linearGradient
       inkscape:collect="always"
       id="linearGradient28237">
      <stop
         style="stop-color:#999999;stop-opacity:1"
         offset="0"
         id="stop28233" />
      <stop
         style="stop-color:#e6e6e6;stop-opacity:1"
         offset="1"
         id="stop28235" />
    </linearGradient>
    <linearGradient
       inkscape:collect="always"
       xlink:href="#linearGradient28277"
       id="linearGradient28239"
       x1="22.272217"
       y1="71.733681"
       x2="22.336126"
       y2="87.312294"
       gradientUnits="userSpaceOnUse"
       gradientTransform="matrix(0.98076294,0,0,1.253329,0.0619462,-13.476182)" />
    <linearGradient
       inkscape:collect="always"
       xlink:href="#linearGradient28237"
       id="linearGradient28239-5"
       x1="22.272217"
       y1="71.733681"
       x2="22.206133"
       y2="87.544174"
       gradientUnits="userSpaceOnUse"
       gradientTransform="matrix(-1.0000606,0,0,0.98082925,224.9124,10.772778)" />
  </defs>
  <sodipodi:namedview
     id="base"
     pagecolor="#ffffff"
     bordercolor="#666666"
     borderopacity="1.0"
     inkscape:pageopacity="0.0"
     inkscape:pageshadow="2"
     inkscape:zoom="1.4673164"
     inkscape:cx="320.70595"
     inkscape:cy="114.63315"
     inkscape:document-units="mm"
     inkscape:current-layer="layer1"
     showgrid="false"
     inkscape:window-width="1920"
     inkscape:window-height="1056"
     inkscape:window-x="0"
     inkscape:window-y="0"
     inkscape:window-maximized="0"
     inkscape:snap-global="false" />
  <metadata
     id="metadata27204">
    <rdf:RDF>
      <cc:Work
         rdf:about="">
        <dc:format>image/svg+xml</dc:format>
        <dc:type
           rdf:resource="http://purl.org/dc/dcmitype/StillImage" />
      </cc:Work>
    </rdf:RDF>
  </metadata>
  <g
     inkscape:label="Layer 1"
     inkscape:groupmode="layer"
     id="layer1"
     transform="translate(-22.18569,-71.31797)">
    <path
       style="opacity:1;fill:url(#linearGradient28239);fill-opacity:1;stroke:#aabbcc;stroke-width:0.23758967px;stroke-linecap:butt;stroke-linejoin:miter;stroke-opacity:0"
       d="m 21.400947,96.188711 -0.06734,-2.708625 3.565549,-1.775279 3.274507,-5.312344 2.25443,-1.662272 4.236493,2.543772 3.06418,-2.155834 1.725269,1.295987 5.497907,-0.266851 3.389192,-4.606591 1.95235,-1.788943 2.992134,2.428165 2.241848,1.539523 3.59185,4.054036 3.15786,-1.780109 3.856019,0.104358 1.542336,-3.685465 1.634523,-1.369475 5.309199,7.233974 3.84015,2.463256 1.279956,-1.561298 3.736721,-2.533459 2.584293,2.173552 c 2.067234,0.495982 2.963815,0.08381 3.951324,0.265971 0.849669,0.156732 1.778323,0.867109 3.442471,1.655234 l 5.670251,-8.601555 2.458491,-2.33735 2.84015,4.450888 3.54815,4.282519 4.0358,-0.06407 5.93887,-6.119425 5.80026,-1.797887 4.78054,-3.224183 6.1512,5.992962 4.38164,1.668993 1.41213,2.44792 4.30105,-1.41731 3.45221,2.722544 6.01382,1.824927 7.58105,-3.763415 2.49925,1.353634 2.88334,-1.249385 2.71634,-4.396878 2.73301,-3.457502 3.31996,1.606832 2.93251,4.875991 6.8324,0.613278 2.00672,1.493609 3.55807,-1.856914 4.85954,4.704825 6.34563,2.215854 0.11659,2.898577 z"
       id="path27209"
       inkscape:connector-curvature="0"
       sodipodi:nodetypes="cccccccccccccccccccccccsccccccccccccccccccccccccccccc" />
    <rect
       style="fill:none;stroke:none;stroke-width:0.26458332"
       id="rect28063"
       width="180.0356"
       height="28.050873"
       x="22.18569"
       y="71.31797" />
    <rect
       style="fill:#000000;fill-opacity:0;stroke:none;stroke-width:0.26458332;stroke-opacity:1"
       id="rect28087"
       width="180.54562"
       height="6.3751984"
       x="22.18569"
       y="93.24865" />
    <path
       style="opacity:1;fill:url(#linearGradient28239-5);fill-opacity:1;stroke:#aabbcc;stroke-width:0.21223786px;stroke-linecap:butt;stroke-linejoin:miter;stroke-opacity:0"
       d="m 202.45844,99.295167 0.007,-3.938747 -2.88346,-1.791626 -3.33458,-4.636896 -2.29879,-1.30086 -2.91709,1.644081 -1.97677,0.277082 -3.54454,-3.722954 -4.72619,-2.658447 -1.86323,-1.977693 -3.81615,2.824555 -6.74925,2.822368 -3.66254,3.172604 -3.21998,-1.393076 -3.9319,0.08167 -1.57269,-2.884168 -1.66667,-1.071722 -5.41367,5.661156 -3.91571,1.927693 -1.30515,-1.22184 -3.81023,-1.982631 -2.63515,1.700976 c -2.10791,0.388145 -3.02213,0.06559 -4.02907,0.208143 -0.8664,0.122655 -1.81331,0.678583 -3.51021,1.295352 l -4.37907,-2.456394 -3.65456,-4.486596 -5.70153,3.136549 -3.10786,-0.576971 -2.07486,2.607298 -6.05572,-4.788934 -5.914397,-1.406989 -4.8746,-2.523179 -6.272246,4.689967 -4.467855,1.306119 -1.439912,1.915691 -9.614103,1.894899 -6.453162,1.899526 -4.170638,-2.441346 -2.80346,1.290407 -4.215315,-3.057474 -5.065186,-2.285499 -4.954684,-2.243605 -1.854999,-1.515504 -4.39296,2.198281 -2.631074,3.252914 -2.046192,1.168866 -3.628083,-1.453182 -4.40554,4.278816 -3.40588,3.349143 -0.05321,3.160806 z"
       id="path27209-6"
       inkscape:connector-curvature="0"
       sodipodi:nodetypes="ccccccccccccccccccccccscccccccccccccccccccccccccccc" />
  </g>
</svg>
